<svg xmlns="http://www.w3.org/2000/svg" viewBox="0 0 128 128"><path d="M64 45.45c-8.99 0-16.27-7.28-16.27-16.27 0-8.99 7.28-16.27 16.27-16.27S80.27 20.19 80.27 29.18A16.27 16.27 0 0 1 64 45.45zM43.64 68.61c-8.99 0-16.27-7.28-16.27-16.27 0-8.99 7.28-16.27 16.27-16.27S59.91 43.35 59.91 52.34A16.27 16.27 0 0 1 43.64 68.61zm40.72 0c-8.99 0-16.27-7.28-16.27-16.27 0-8.99 7.28-16.27 16.27-16.27s16.27 7.28 16.27 16.27-7.28 16.27-16.27 16.27zm0-55.7c14.28 0 25.85 11.57 25.85 25.85 0 14.28-11.57 25.85-25.85 25.85-14.28 0-25.85-11.57-25.85-25.85 0-14.28 11.57-25.85 25.85-25.85zm-40.72 0c14.28 0 25.85 11.57 25.85 25.85 0 14.28-11.57 25.85-25.85 25.85-14.28 0-25.85-11.57-25.85-25.85C17.78 24.48 29.35 12.91 43.64 12.91zm20.36-2.22c15.17 0 27.46 12.29 27.46 27.46 0 15.17-12.29 27.46-27.46 27.46S36.54 53.32 36.54 38.15c0-15.17 12.29-27.46 27.46-27.46z" fill="#f06a6a"/><path d="M43.64 115.09c-8.99 0-16.27-7.28-16.27-16.27 0-8.99 7.28-16.27 16.27-16.27S59.91 89.83 59.91 98.82a16.27 16.27 0 0 1-16.27 16.27zm40.72 0c-8.99 0-16.27-7.28-16.27-16.27 0-8.99 7.28-16.27 16.27-16.27s16.27 7.28 16.27 16.27-7.28 16.27-16.27 16.27zm0-55.7c14.28 0 25.85 11.57 25.85 25.85 0 14.28-11.57 25.85-25.85 25.85-14.28 0-25.85-11.57-25.85-25.85 0-14.28 11.57-25.85 25.85-25.85zm-40.72 0c14.28 0 25.85 11.57 25.85 25.85 0 14.28-11.57 25.85-25.85 25.85C29.35 110.65 17.78 99.08 17.78 84.8c0-14.28 11.57-25.85 25.86-25.85zM64 59.39c14.28 0 25.85 11.57 25.85 25.85 0 14.28-11.57 25.85-25.85 25.85-14.28 0-25.85-11.57-25.85-25.85 0-14.28 11.57-25.85 25.85-25.85z" fill="#f06a6a"/><circle cx="64" cy="98.82" r="16.27" fill="#f06a6a"/></svg>
