<svg viewBox="0 0 128 128" xmlns="http://www.w3.org/2000/svg">
  <path fill="#006BFF" d="M85.3 103A25.3 25.3 0 0 1 60 77.7V59H25A25.3 25.3 0 0 1 50.3 33.7H85.3A25.3 25.3 0 0 1 110.6 59v18.7A25.3 25.3 0 0 1 85.3 103Z"/>
  <path fill="#006BFF" d="M42.7 103A25.3 25.3 0 0 1 17.4 77.7H30v-14H17.4A25.3 25.3 0 0 1 42.7 38.4V25.7A38 38 0 0 0 4.7 63.7a38 38 0 0 0 38 38V89.3A25.3 25.3 0 0 1 42.7 64Z"/>
  <circle fill="#006BFF" cx="90" cy="50" r="12" />
  <circle fill="#FFFFFF" cx="90" cy="50" r="6" />
</svg>
